# xmcd
#
# Track frame offsets: 
#        150
#        9975
#        28095
#        49814
#        69301
#        100174
#        129277
#        151527
#        173655
#        220838
#        237491
#
# Disc length: 3924 seconds
#
# Revision: 0
# Processed by: cddbd v1.4PL0 Copyright (c) Steve Scherf et al.
# Submitted via: ExactAudioCopy v0.90b4
#
DISCID=810f520b
DTITLE=Van Morrison - My Happy Heart, disc 1
DYEAR=1999
DGENRE=Celtic
TTITLE0=My Happy Day
TTITLE1=Inarticulate Speech Of The Heart # 1
TTITLE2=Did Ye Get Healed ?
TTITLE3=Back On Top
TTITLE4=When The Leaves Come Falling Down
TTITLE5=Moondance
TTITLE6=Have I Told You Lately
TTITLE7=Going Down Geneva > Brand New Cadillac
TTITLE8=It's All In The Game > You Know What They're Writing About > R
TTITLE8=ainbow 66
TTITLE9=Precious Time
TTITLE10=In The Afternoon > Joe Turner Sings > Don't You Make Me High
EXTD=
EXTT0=
EXTT1=
EXTT2=
EXTT3=
EXTT4=
EXTT5=
EXTT6=
EXTT7=
EXTT8=
EXTT9=
EXTT10=
PLAYORDER=
